<svg xmlns="http://www.w3.org/2000/svg" version="1.1" viewBox="0 0 48 48">
<defs>
<style type="text/css" id="current-color-scheme">
* { color: #333; }
.ColorScheme-Text { color: #333; }
.ColorScheme-Background { color: #fff; }
</style>
</defs>
 <path  style="fill:currentColor" d="m42 25.797647v-3.600335l-5.401338-1.799331-.973517-2.707384 2.54793-5.090826-2.544574-2.542895-5.090824 2.544573-2.937337-1.203469-1.801008-5.39798h-3.598658l-1.799329 5.39798-2.700671.918128-5.090826-2.5479303-2.54793 2.5445733 2.54793 5.090826-1.210183 2.994404-5.399665 1.799331v3.598657l5.399665 1.802686 1.21354 2.979298-2.551287 5.092505 2.54793 2.542895 5.090826-2.544574 2.700671.928199 1.799329 5.403022h3.596979l1.802687-5.403022 2.937337-1.211862 5.090824 2.549609 2.544574-2.544573-2.544574-5.092504.970161-2.698993zm-17.999997 3.600336c-2.982656 0-5.399665-2.417008-5.399665-5.401343 0-2.980977 2.415331-5.401345 5.399665-5.401345s5.399665 2.418689 5.399665 5.401345c0 2.984335-2.417008 5.401343-5.399665 5.401343z" fill="#333"/>
</svg>
